<svg width="183" height="51" viewBox="0 0 183 51" fill="none" xmlns="http://www.w3.org/2000/svg">
<path d="M37.5027 17.1C37.5027 25.9901 30.2823 33.2 21.3716 33.2C12.4609 33.2 5.24045 25.9901 5.24045 17.1C5.24045 8.20993 12.4609 1 21.3716 1C30.2823 1 37.5027 8.20993 37.5027 17.1Z" fill="#5459D8" stroke="white" stroke-width="2"/>
<ellipse cx="4.80545" cy="3.00206" rx="4.80545" ry="3.00206" transform="matrix(0.790044 -0.61305 0.614443 0.788961 9.65028 10.092)" fill="white"/>
<path d="M57.3388 29.7C57.3388 38.5901 50.1184 45.8 41.2077 45.8C32.297 45.8 25.0765 38.5901 25.0765 29.7C25.0765 20.8099 32.297 13.6 41.2077 13.6C50.1184 13.6 57.3388 20.8099 57.3388 29.7Z" fill="#5459D8" stroke="white" stroke-width="2"/>
<ellipse cx="40.306" cy="21" rx="4.80874" ry="3" fill="white"/>
<path d="M33.2951 33.9C33.2951 42.7901 26.0746 50 17.1639 50C8.25324 50 1.03279 42.7901 1.03279 33.9C1.03279 25.0099 8.25324 17.8 17.1639 17.8C26.0746 17.8 33.2951 25.0099 33.2951 33.9Z" fill="#5459D8" stroke="white" stroke-width="2"/>
<ellipse cx="4.80083" cy="3.00495" rx="4.80083" ry="3.00495" transform="matrix(0.307572 0.951525 -0.951852 0.30656 27.4239 26.0437)" fill="white"/>
<path d="M67.033 33.6V19.296H73.0728C73.9704 19.296 74.7462 19.456 75.4002 19.776C76.0542 20.0832 76.5543 20.5312 76.9006 21.12C77.2468 21.696 77.4199 22.3808 77.4199 23.1744C77.4199 23.8656 77.2404 24.4992 76.8813 25.0752C76.5351 25.6384 75.9901 26.0864 75.2464 26.4192V25.4592C75.9003 25.7152 76.4325 26.0416 76.8429 26.4384C77.2532 26.8224 77.5481 27.2576 77.7277 27.744C77.92 28.2304 78.0162 28.7424 78.0162 29.28C78.0162 30.624 77.5738 31.68 76.689 32.448C75.817 33.216 74.618 33.6 73.092 33.6H67.033ZM69.3027 31.584H73.2652C74.0217 31.584 74.6244 31.3792 75.0732 30.9696C75.5221 30.5472 75.7465 29.9904 75.7465 29.2992C75.7465 28.5952 75.5221 28.0384 75.0732 27.6288C74.6244 27.2064 74.0217 26.9952 73.2652 26.9952H69.3027V31.584ZM69.3027 24.9984H73.1305C73.746 24.9984 74.2397 24.8256 74.6116 24.48C74.9835 24.1216 75.1694 23.6544 75.1694 23.0784C75.1694 22.5024 74.9835 22.0544 74.6116 21.7344C74.2397 21.4144 73.746 21.2544 73.1305 21.2544H69.3027V24.9984Z" fill="black"/>
<path d="M85.0251 33.8304C83.9864 33.8304 83.0631 33.5936 82.2552 33.12C81.4602 32.6336 80.8383 31.9808 80.3895 31.1616C79.9406 30.3296 79.7162 29.4016 79.7162 28.3776C79.7162 27.328 79.9406 26.4 80.3895 25.5936C80.8511 24.7872 81.4666 24.1536 82.236 23.6928C83.0054 23.2192 83.8774 22.9824 84.852 22.9824C85.6342 22.9824 86.3331 23.1168 86.9486 23.3856C87.5641 23.6544 88.0834 24.0256 88.5066 24.4992C88.9298 24.96 89.2504 25.4912 89.4684 26.0928C89.6992 26.6944 89.8146 27.3344 89.8146 28.0128C89.8146 28.1792 89.8082 28.352 89.7954 28.5312C89.7825 28.7104 89.7569 28.8768 89.7184 29.0304H81.4281V27.3024H88.4874L87.4487 28.0896C87.5769 27.4624 87.532 26.9056 87.314 26.4192C87.1089 25.92 86.7883 25.5296 86.3523 25.248C85.9291 24.9536 85.429 24.8064 84.852 24.8064C84.2749 24.8064 83.762 24.9536 83.3132 25.248C82.8644 25.5296 82.5181 25.9392 82.2745 26.4768C82.0308 27.0016 81.9347 27.6416 81.986 28.3968C81.9218 29.1008 82.018 29.7152 82.2745 30.24C82.5438 30.7648 82.9156 31.1744 83.3901 31.4688C83.8774 31.7632 84.4288 31.9104 85.0443 31.9104C85.6727 31.9104 86.2048 31.7696 86.6408 31.488C87.0896 31.2064 87.4423 30.8416 87.6987 30.3936L89.4684 31.2576C89.2632 31.744 88.9426 32.1856 88.5066 32.5824C88.0834 32.9664 87.5705 33.2736 86.9678 33.504C86.3779 33.7216 85.7304 33.8304 85.0251 33.8304Z" fill="black"/>
<path d="M91.9358 33.6V23.2128H94.0132V25.3056L93.8209 24.9984C94.0517 24.32 94.4236 23.8336 94.9365 23.5392C95.4494 23.232 96.065 23.0784 96.7831 23.0784H97.4178V25.056H96.5138C95.7957 25.056 95.2122 25.28 94.7634 25.728C94.3274 26.1632 94.1094 26.7904 94.1094 27.6096V33.6H91.9358Z" fill="black"/>
<path d="M98.9048 33.6V23.2128H100.982V25.3056L100.79 24.9984C101.021 24.32 101.392 23.8336 101.905 23.5392C102.418 23.232 103.034 23.0784 103.752 23.0784H104.387V25.056H103.483C102.765 25.056 102.181 25.28 101.732 25.728C101.296 26.1632 101.078 26.7904 101.078 27.6096V33.6H98.9048Z" fill="black"/>
<path d="M106.797 37.8432C106.541 37.8432 106.284 37.8176 106.028 37.7664C105.784 37.728 105.56 37.664 105.354 37.5744V35.712C105.508 35.7504 105.694 35.7824 105.912 35.808C106.13 35.8464 106.342 35.8656 106.547 35.8656C107.15 35.8656 107.592 35.7312 107.874 35.4624C108.169 35.2064 108.432 34.8032 108.663 34.2528L109.355 32.6784L109.317 34.5024L104.816 23.2128H107.143L110.471 31.872H109.682L112.991 23.2128H115.337L110.74 34.7328C110.496 35.3472 110.189 35.8848 109.817 36.3456C109.458 36.8192 109.028 37.184 108.528 37.44C108.041 37.7088 107.464 37.8432 106.797 37.8432Z" fill="black"/>
<path d="M117.036 33.6V19.296H119.306V31.584H125.5V33.6H117.036Z" fill="black"/>
<path d="M130.31 33.8304C129.604 33.8304 128.983 33.7088 128.444 33.4656C127.918 33.2096 127.508 32.864 127.213 32.4288C126.918 31.9808 126.771 31.456 126.771 30.8544C126.771 30.2912 126.892 29.7856 127.136 29.3376C127.392 28.8896 127.784 28.512 128.309 28.2048C128.835 27.8976 129.495 27.68 130.291 27.552L133.907 26.9568V28.6656L130.714 29.2224C130.137 29.3248 129.713 29.5104 129.444 29.7792C129.175 30.0352 129.04 30.368 129.04 30.7776C129.04 31.1744 129.188 31.5008 129.483 31.7568C129.79 32 130.182 32.1216 130.656 32.1216C131.246 32.1216 131.759 31.9936 132.195 31.7376C132.644 31.4816 132.99 31.1424 133.233 30.72C133.477 30.2848 133.599 29.8048 133.599 29.28V26.6112C133.599 26.0992 133.407 25.6832 133.022 25.3632C132.65 25.0304 132.15 24.864 131.522 24.864C130.945 24.864 130.438 25.0176 130.002 25.3248C129.579 25.6192 129.265 26.0032 129.059 26.4768L127.251 25.5744C127.444 25.0624 127.758 24.6144 128.194 24.2304C128.63 23.8336 129.136 23.5264 129.713 23.3088C130.303 23.0912 130.925 22.9824 131.579 22.9824C132.4 22.9824 133.124 23.136 133.753 23.4432C134.394 23.7504 134.888 24.1792 135.234 24.7296C135.593 25.2672 135.772 25.8944 135.772 26.6112V33.6H133.695V31.7184L134.138 31.776C133.894 32.1984 133.58 32.5632 133.195 32.8704C132.823 33.1776 132.394 33.4144 131.906 33.5808C131.432 33.7472 130.9 33.8304 130.31 33.8304Z" fill="black"/>
<path d="M143.873 33.8304C143.065 33.8304 142.328 33.664 141.661 33.3312C141.007 32.9984 140.5 32.5184 140.141 31.8912L140.391 31.488V33.6H138.314V19.0656H140.487V25.3632L140.141 24.864C140.526 24.2752 141.039 23.8144 141.68 23.4816C142.321 23.1488 143.052 22.9824 143.873 22.9824C144.86 22.9824 145.745 23.2192 146.527 23.6928C147.322 24.1664 147.944 24.8128 148.393 25.632C148.855 26.4512 149.086 27.3728 149.086 28.3968C149.086 29.4208 148.855 30.3424 148.393 31.1616C147.944 31.9808 147.329 32.6336 146.546 33.12C145.764 33.5936 144.873 33.8304 143.873 33.8304ZM143.661 31.8144C144.277 31.8144 144.822 31.6672 145.296 31.3728C145.771 31.0784 146.143 30.6752 146.412 30.1632C146.694 29.6384 146.835 29.0496 146.835 28.3968C146.835 27.744 146.694 27.1616 146.412 26.6496C146.143 26.1376 145.771 25.7344 145.296 25.44C144.822 25.1456 144.277 24.9984 143.661 24.9984C143.059 24.9984 142.514 25.1456 142.026 25.44C141.552 25.7344 141.174 26.1376 140.891 26.6496C140.622 27.1616 140.487 27.744 140.487 28.3968C140.487 29.0496 140.622 29.6384 140.891 30.1632C141.174 30.6752 141.552 31.0784 142.026 31.3728C142.514 31.6672 143.059 31.8144 143.661 31.8144Z" fill="black"/>
<path d="M155.047 33.8304C153.983 33.8304 153.046 33.568 152.239 33.0432C151.443 32.5184 150.886 31.8144 150.565 30.9312L152.239 30.144C152.521 30.7328 152.905 31.2 153.393 31.5456C153.893 31.8912 154.444 32.064 155.047 32.064C155.56 32.064 155.977 31.9488 156.297 31.7184C156.618 31.488 156.778 31.1744 156.778 30.7776C156.778 30.5216 156.707 30.3168 156.566 30.1632C156.425 29.9968 156.246 29.8624 156.028 29.76C155.823 29.6576 155.611 29.5808 155.393 29.5296L153.758 29.0688C152.86 28.8128 152.187 28.4288 151.738 27.9168C151.302 27.392 151.084 26.784 151.084 26.0928C151.084 25.4656 151.245 24.9216 151.565 24.4608C151.886 23.9872 152.328 23.6224 152.893 23.3664C153.457 23.1104 154.092 22.9824 154.797 22.9824C155.746 22.9824 156.592 23.2192 157.336 23.6928C158.08 24.1536 158.605 24.8 158.913 25.632L157.24 26.4192C157.034 25.92 156.707 25.5232 156.259 25.2288C155.823 24.9344 155.329 24.7872 154.778 24.7872C154.303 24.7872 153.925 24.9024 153.643 25.1328C153.361 25.3504 153.22 25.6384 153.22 25.9968C153.22 26.24 153.284 26.4448 153.412 26.6112C153.54 26.7648 153.707 26.8928 153.912 26.9952C154.117 27.0848 154.329 27.1616 154.547 27.2256L156.239 27.7248C157.099 27.968 157.759 28.352 158.221 28.8768C158.682 29.3888 158.913 30.0032 158.913 30.72C158.913 31.3344 158.746 31.8784 158.413 32.352C158.092 32.8128 157.644 33.1776 157.067 33.4464C156.489 33.7024 155.816 33.8304 155.047 33.8304Z" fill="black"/>
<path d="M162.004 33.6V31.104H164.217V33.6H162.004Z" fill="black"/>
<path d="M167.711 33.6V23.2128H169.885V33.6H167.711ZM167.711 21.792V19.296H169.885V21.792H167.711Z" fill="black"/>
<path d="M177.446 33.8304C176.446 33.8304 175.529 33.5936 174.696 33.12C173.875 32.6464 173.221 32 172.734 31.1808C172.246 30.3616 172.003 29.4336 172.003 28.3968C172.003 27.3472 172.246 26.4192 172.734 25.6128C173.221 24.7936 173.875 24.1536 174.696 23.6928C175.516 23.2192 176.433 22.9824 177.446 22.9824C178.472 22.9824 179.389 23.2192 180.197 23.6928C181.018 24.1536 181.665 24.7936 182.14 25.6128C182.627 26.4192 182.871 27.3472 182.871 28.3968C182.871 29.4464 182.627 30.3808 182.14 31.2C181.652 32.0192 180.998 32.6656 180.178 33.1392C179.357 33.6 178.446 33.8304 177.446 33.8304ZM177.446 31.8144C178.062 31.8144 178.607 31.6672 179.081 31.3728C179.556 31.0784 179.928 30.6752 180.197 30.1632C180.479 29.6384 180.62 29.0496 180.62 28.3968C180.62 27.744 180.479 27.1616 180.197 26.6496C179.928 26.1376 179.556 25.7344 179.081 25.44C178.607 25.1456 178.062 24.9984 177.446 24.9984C176.844 24.9984 176.299 25.1456 175.811 25.44C175.337 25.7344 174.959 26.1376 174.676 26.6496C174.407 27.1616 174.272 27.744 174.272 28.3968C174.272 29.0496 174.407 29.6384 174.676 30.1632C174.959 30.6752 175.337 31.0784 175.811 31.3728C176.299 31.6672 176.844 31.8144 177.446 31.8144Z" fill="black"/>
</svg>
