<svg width="8" height="8" viewBox="0 0 8 8" fill="none" xmlns="http://www.w3.org/2000/svg">
<path d="M4.46154 6C4.46154 6.09128 4.43447 6.18052 4.38376 6.25642C4.33304 6.33232 4.26096 6.39147 4.17662 6.4264C4.09229 6.46134 3.99949 6.47048 3.90996 6.45267C3.82043 6.43486 3.73819 6.3909 3.67364 6.32636C3.6091 6.26181 3.56514 6.17957 3.54733 6.09004C3.52952 6.00051 3.53866 5.90771 3.5736 5.82338C3.60853 5.73904 3.66768 5.66696 3.74358 5.61624C3.81948 5.56553 3.90872 5.53846 4 5.53846C4.12241 5.53846 4.2398 5.58709 4.32636 5.67364C4.41291 5.7602 4.46154 5.87759 4.46154 6ZM4 1.84615C3.15154 1.84615 2.46154 2.46731 2.46154 3.23077V3.38461C2.46154 3.46622 2.49396 3.54448 2.55166 3.60219C2.60936 3.65989 2.68763 3.69231 2.76923 3.69231C2.85084 3.69231 2.9291 3.65989 2.9868 3.60219C3.04451 3.54448 3.07692 3.46622 3.07692 3.38461V3.23077C3.07692 2.80769 3.49116 2.46154 4 2.46154C4.50885 2.46154 4.92308 2.80769 4.92308 3.23077C4.92308 3.65385 4.50885 4 4 4C3.9184 4 3.84013 4.03242 3.78243 4.09012C3.72473 4.14782 3.69231 4.22609 3.69231 4.30769V4.61538C3.69231 4.69699 3.72473 4.77525 3.78243 4.83296C3.84013 4.89066 3.9184 4.92308 4 4.92308C4.08161 4.92308 4.15987 4.89066 4.21757 4.83296C4.27528 4.77525 4.30769 4.69699 4.30769 4.61538V4.58769C5.00923 4.45885 5.53846 3.89923 5.53846 3.23077C5.53846 2.46731 4.84846 1.84615 4 1.84615ZM8 4C8 4.79112 7.7654 5.56448 7.32588 6.22228C6.88635 6.88008 6.26164 7.39277 5.53073 7.69552C4.79983 7.99827 3.99556 8.07748 3.21964 7.92314C2.44372 7.7688 1.73098 7.38784 1.17157 6.82843C0.612164 6.26902 0.231202 5.55628 0.0768607 4.78036C-0.0774802 4.00444 0.00173312 3.20017 0.304484 2.46927C0.607234 1.73836 1.11992 1.11365 1.77772 0.674121C2.43552 0.234596 3.20888 0 4 0C5.06052 0.00111993 6.07729 0.422907 6.82719 1.17281C7.57709 1.92271 7.99888 2.93948 8 4ZM7.38462 4C7.38462 3.33059 7.18611 2.67621 6.81421 2.11961C6.4423 1.56301 5.9137 1.1292 5.29524 0.873023C4.67678 0.61685 3.99625 0.549823 3.3397 0.680419C2.68314 0.811015 2.08006 1.13337 1.60672 1.60672C1.13337 2.08006 0.811017 2.68314 0.680421 3.33969C0.549825 3.99624 0.616851 4.67678 0.873025 5.29524C1.1292 5.91369 1.56301 6.4423 2.11961 6.8142C2.67621 7.18611 3.33059 7.38461 4 7.38461C4.89734 7.3836 5.75764 7.02668 6.39216 6.39216C7.02668 5.75764 7.3836 4.89734 7.38462 4Z" fill="#8980C4"/>
</svg>
